<mxfile host="app.diagrams.net" modified="2024-07-14T05:54:45.817Z" agent="Mozilla/5.0 (X11; Linux x86_64; rv:123.0) Gecko/20100101 Firefox/123.0" etag="DhWR_JDpFbZ-XXj5CvYz" version="24.6.5" type="device">
  <diagram name="architecture" id="v0DjDmxg5HgbBpWeOEGr">
    <mxGraphModel dx="1434" dy="910" grid="1" gridSize="10" guides="1" tooltips="1" connect="1" arrows="1" fold="1" page="1" pageScale="1" pageWidth="850" pageHeight="1100" math="0" shadow="0">
      <root>
        <mxCell id="0" />
        <mxCell id="1" parent="0" />
        <mxCell id="zP6gk5AF6u8iHWVu7ZUw-2" style="edgeStyle=orthogonalEdgeStyle;rounded=0;orthogonalLoop=1;jettySize=auto;html=1;exitX=0.5;exitY=0.5;exitDx=0;exitDy=0;exitPerimeter=0;" edge="1" parent="1" source="zP6gk5AF6u8iHWVu7ZUw-1" target="zP6gk5AF6u8iHWVu7ZUw-3">
          <mxGeometry relative="1" as="geometry">
            <mxPoint x="570" y="470" as="targetPoint" />
          </mxGeometry>
        </mxCell>
        <mxCell id="zP6gk5AF6u8iHWVu7ZUw-1" value="Actor" style="shape=umlActor;verticalLabelPosition=bottom;verticalAlign=top;html=1;outlineConnect=0;" vertex="1" parent="1">
          <mxGeometry x="410" y="451.25" width="30" height="60" as="geometry" />
        </mxCell>
        <mxCell id="zP6gk5AF6u8iHWVu7ZUw-3" value="" style="rounded=0;whiteSpace=wrap;html=1;fillColor=none;dashed=1;" vertex="1" parent="1">
          <mxGeometry x="560" y="280" width="600" height="402.5" as="geometry" />
        </mxCell>
        <mxCell id="zP6gk5AF6u8iHWVu7ZUw-6" value="" style="edgeStyle=orthogonalEdgeStyle;rounded=0;orthogonalLoop=1;jettySize=auto;html=1;" edge="1" parent="1" source="zP6gk5AF6u8iHWVu7ZUw-4" target="zP6gk5AF6u8iHWVu7ZUw-5">
          <mxGeometry relative="1" as="geometry" />
        </mxCell>
        <mxCell id="zP6gk5AF6u8iHWVu7ZUw-4" value="Router" style="rounded=0;whiteSpace=wrap;html=1;" vertex="1" parent="1">
          <mxGeometry x="600" y="336.25" width="120" height="290" as="geometry" />
        </mxCell>
        <mxCell id="zP6gk5AF6u8iHWVu7ZUw-10" value="" style="edgeStyle=orthogonalEdgeStyle;rounded=0;orthogonalLoop=1;jettySize=auto;html=1;" edge="1" parent="1" source="zP6gk5AF6u8iHWVu7ZUw-5" target="zP6gk5AF6u8iHWVu7ZUw-9">
          <mxGeometry relative="1" as="geometry" />
        </mxCell>
        <mxCell id="zP6gk5AF6u8iHWVu7ZUw-5" value="Service" style="whiteSpace=wrap;html=1;rounded=0;" vertex="1" parent="1">
          <mxGeometry x="800" y="336.25" width="120" height="290" as="geometry" />
        </mxCell>
        <mxCell id="zP6gk5AF6u8iHWVu7ZUw-12" value="" style="edgeStyle=orthogonalEdgeStyle;rounded=0;orthogonalLoop=1;jettySize=auto;html=1;" edge="1" parent="1" source="zP6gk5AF6u8iHWVu7ZUw-9" target="zP6gk5AF6u8iHWVu7ZUw-11">
          <mxGeometry relative="1" as="geometry" />
        </mxCell>
        <mxCell id="zP6gk5AF6u8iHWVu7ZUw-9" value="Meme-gateway" style="whiteSpace=wrap;html=1;rounded=0;" vertex="1" parent="1">
          <mxGeometry x="1000" y="336.25" width="120" height="290" as="geometry" />
        </mxCell>
        <mxCell id="zP6gk5AF6u8iHWVu7ZUw-11" value="meme providers" style="ellipse;shape=cloud;whiteSpace=wrap;html=1;rounded=0;" vertex="1" parent="1">
          <mxGeometry x="1220" y="396.88" width="270" height="168.75" as="geometry" />
        </mxCell>
      </root>
    </mxGraphModel>
  </diagram>
</mxfile>
